<?xml version="1.0" encoding="utf-8"?>
<!-- Generator: Adobe Illustrator 19.0.0, SVG Export Plug-In . SVG Version: 6.00 Build 0)  -->
<svg version="1.1" id="Layer_1" xmlns="http://www.w3.org/2000/svg" xmlns:xlink="http://www.w3.org/1999/xlink" x="0px" y="0px"
	 viewBox="1170 112.6 476 532.1" style="enable-background:new 1170 112.6 476 532.1;" xml:space="preserve">
<style type="text/css">
	.st0{display:none;}
	.st1{display:inline;fill:#44AA96;}
	.st2{display:inline;fill:#A4A4A4;}
	.st3{display:inline;fill:#C6C6C5;}
	.st4{display:inline;fill:#948C94;}
	.st5{display:inline;fill:#429287;}
	.st6{display:inline;fill:#59BAA7;}
	.st7{display:inline;}
	.st8{display:none;fill:#44AA96;}
	.st9{fill:#44AA96;}
	.st10{fill:#FFFFFF;}
	.st11{fill:#429287;}
	.st12{display:none;fill:#59C9B2;}
	.st13{fill:#59C9B2;}
	.st14{display:inline;fill:none;}
	.st15{enable-background:new    ;}
</style>
<g id="Layer_2" class="st0">
	
		<image style="display:inline;overflow:visible;enable-background:new    ;" width="229" height="221" xlink:href="2CF3998816A6D7B7.jpeg"  transform="matrix(1 0 0 1 779 56)">
	</image>
</g>
<g id="Layer_3" class="st0">
	<circle id="XMLID_1_" class="st1" cx="1411.9" cy="383.6" r="369.3"/>
	<path id="XMLID_5_" class="st2" d="M1411.9,14.4c-1.3,0-2.6,0-3.9,0c-204,0-369.3,165.3-369.3,369.3h373.2V14.4z"/>
	<polygon id="XMLID_3_" class="st3" points="1411.9,383.6 1371.9,343.6 1411.9,14.4 	"/>
	<polygon id="XMLID_4_" class="st4" points="1038.7,383.6 1371.9,343.6 1411.9,383.6 	"/>
	<path id="XMLID_9_" class="st2" d="M1791.6,385.6c0-1.3,0-2.6,0-3.9c0-204-165.3-369.3-369.3-369.3v373.2H1791.6z"/>
	<polygon id="XMLID_8_" class="st4" points="1422.3,385.6 1462.3,345.6 1791.6,385.6 	"/>
	<polygon id="XMLID_2_" class="st3" points="1422.3,12.4 1462.3,345.6 1422.3,385.6 	"/>
	<path id="XMLID_12_" class="st2" d="M1421.3,765.4c1.3,0,2.6,0,3.9,0c204,0,369.3-165.3,369.3-369.3h-373.2V765.4z"/>
	<polygon id="XMLID_11_" class="st3" points="1421.3,396.2 1461.4,436.2 1421.3,765.4 	"/>
	<polygon id="XMLID_6_" class="st4" points="1794.5,396.2 1461.4,436.2 1421.3,396.2 	"/>
	<path id="XMLID_17_" class="st1" d="M1040.7,394.2c0,1.3,0,2.6,0,3.9c0,204,165.3,369.3,369.3,369.3V394.2H1040.7z"/>
	<polygon id="XMLID_16_" class="st5" points="1410,394.2 1369.9,434.2 1040.7,394.2 	"/>
	<polygon id="XMLID_7_" class="st6" points="1410,767.4 1369.9,434.2 1410,394.2 	"/>
</g>
<g id="Layer_9" class="st0">
	<g id="top" class="st7">
		<path id="XMLID_18_" class="st8" d="M1646,399c0.1-34.1-4.3-64-18.8-91.6c-21.8-41.5-55.4-66.8-102.3-73.9
			c-30.1-4.6-58.4,0.1-85.7,13c-9.9,4.7-20.1,8.8-31.2,8.4c-11,0.4-21.2-3.7-31.2-8.4c-27.4-12.9-55.6-17.6-85.7-13
			c-46.9,7.2-80.5,32.5-102.3,73.9c-14.5,27.6-18.9,57.5-18.8,91.6c-0.2,11.6,1.1,26.6,3.3,41.4c6.6,44.1,22.3,84.8,46.4,122.3
			c15.2,23.7,32,46.2,54,64.4c20.1,16.7,42.3,22.2,67.3,13.6c9.8-3.4,19.4-7.5,29.2-11.1c12.4-4.6,25-7.4,37.8-7.7
			c12.8,0.3,25.3,3.1,37.8,7.7c9.8,3.6,19.4,7.7,29.2,11.1c25,8.6,47.3,3,67.3-13.6c21.9-18.2,38.7-40.6,54-64.4
			c24-37.5,39.8-78.2,46.4-122.3C1644.9,425.6,1646.2,410.7,1646,399z"/>
		<path id="XMLID_14_" class="st9" d="M1408,538.1c97.2,0,183.4-47,237.2-119.5c0.6-7.1,0.9-13.7,0.7-19.6
			c0.1-34.1-4.3-64-18.8-91.6c-21.8-41.5-55.4-66.8-102.3-73.9c-30.1-4.6-58.4,0.1-85.7,13c-9.9,4.7-20.1,8.8-31.2,8.4
			c-11,0.4-21.2-3.7-31.2-8.4c-27.4-12.9-55.6-17.6-85.7-13c-46.9,7.2-80.5,32.5-102.3,73.9c-14.4,27.6-18.8,57.5-18.7,91.6
			c-0.1,5.8,0.2,12.5,0.7,19.6C1224.6,491.1,1310.8,538.1,1408,538.1z"/>
	</g>
	<g id="eye" class="st7">
		<ellipse id="XMLID_10_" class="st10" cx="1328.8" cy="345.3" rx="24.2" ry="39.6"/>
		<ellipse id="XMLID_15_" class="st10" cx="1486.4" cy="345.3" rx="24.2" ry="39.6"/>
	</g>
	<g id="close" class="st7">
		<g id="XMLID_13_">
			<path id="XMLID_63_" class="st10" d="M1261.3,357.7c0,0,0.2-0.6,0.5-1.6c0.4-1,1-2.5,1.9-4.4c1.8-3.7,4.7-8.8,9.3-14.3
				c4.5-5.5,10.8-11.4,18.7-16c1-0.6,2-1.2,3.1-1.7c1-0.5,2.1-1.1,3.2-1.5c1.1-0.5,2.2-1,3.3-1.4s2.3-0.8,3.5-1.2
				c4.7-1.5,9.6-2.4,14.6-2.8l1.9-0.1h0.9h1.1h1.7c0.6,0,1.1,0,1.8,0.1c1.3,0.1,2.7,0.2,3.9,0.3c1.2,0.2,2.5,0.4,3.7,0.6
				c1.2,0.3,2.4,0.5,3.6,0.8c1.2,0.4,2.4,0.7,3.5,1.1c2.3,0.8,4.6,1.8,6.6,2.9c4.2,2.2,7.9,5,10.9,8c3.1,3,5.6,6.1,7.5,9.1
				c4,6.1,6,11.7,7.1,15.7c0.6,2,0.8,3.6,1,4.7c0.2,1.1,0.2,1.7,0.2,1.7s-0.3-0.5-0.9-1.4c-0.6-0.9-1.4-2.2-2.6-3.9
				c-2.3-3.3-5.7-7.8-10.3-12.3c-4.6-4.6-10.6-9-17.6-11.9c-1.8-0.7-3.6-1.3-5.5-1.9c-1.9-0.5-3.8-0.9-5.8-1.2c-1-0.1-2-0.2-3-0.3
				c-1-0.1-1.9-0.1-2.9-0.2c-0.4,0-1.1,0-1.6,0h-1.7h-0.4h-0.2h-0.1c-0.2,0,0.2,0,0.1,0l0,0l-0.8,0.1l-1.5,0.1
				c-4.1,0.3-8.2,1-12.2,2c-0.5,0.1-1,0.2-1.5,0.4l-1.5,0.5c-1,0.3-1.9,0.6-2.9,0.9s-1.9,0.7-2.8,1.1c-0.9,0.4-1.8,0.8-2.7,1.2
				c-7.2,3.3-13.6,7.5-18.8,11.6c-5.2,4.1-9.3,8-12.2,10.8c-1.4,1.4-2.5,2.5-3.3,3.3C1261.7,357.2,1261.3,357.7,1261.3,357.7z"/>
		</g>
		<g id="XMLID_43_">
			<path id="XMLID_61_" class="st10" d="M1430.7,357.7c0,0,0.2-0.6,0.5-1.6c0.4-1,1-2.5,1.9-4.4c1.8-3.7,4.7-8.8,9.3-14.3
				c4.5-5.5,10.8-11.4,18.7-16c1-0.6,2-1.2,3.1-1.7c1-0.5,2.1-1.1,3.2-1.5c1.1-0.5,2.2-1,3.3-1.4s2.3-0.8,3.5-1.2
				c4.7-1.5,9.6-2.4,14.6-2.8l1.9-0.1h0.9h1.1h1.7c0.6,0,1.1,0,1.8,0.1c1.3,0.1,2.7,0.2,3.9,0.3c1.2,0.2,2.5,0.4,3.7,0.6
				c1.2,0.3,2.4,0.5,3.6,0.8c1.2,0.4,2.4,0.7,3.5,1.1c2.3,0.8,4.6,1.8,6.6,2.9c4.2,2.2,7.9,5,10.9,8c3.1,3,5.6,6.1,7.5,9.1
				c4,6.1,6,11.7,7.1,15.7c0.6,2,0.8,3.6,1,4.7s0.2,1.7,0.2,1.7s-0.3-0.5-0.9-1.4s-1.4-2.2-2.6-3.9c-2.3-3.3-5.7-7.8-10.3-12.3
				c-4.6-4.6-10.6-9-17.6-11.9c-1.8-0.7-3.6-1.3-5.5-1.9c-1.9-0.5-3.8-0.9-5.8-1.2c-1-0.1-2-0.2-3-0.3c-1-0.1-1.9-0.1-2.9-0.2
				c-0.4,0-1.1,0-1.6,0h-1.7h-0.4h-0.2h-0.1c-0.2,0,0.2,0,0.1,0l0,0l-0.8,0.1l-1.5,0.1c-4.1,0.3-8.2,1-12.2,2
				c-0.5,0.1-1,0.2-1.5,0.4l-1.5,0.5c-1,0.3-1.9,0.6-2.9,0.9s-1.9,0.7-2.8,1.1s-1.8,0.8-2.7,1.2c-7.2,3.3-13.6,7.5-18.8,11.6
				c-5.2,4.1-9.3,8-12.2,10.8c-1.4,1.4-2.5,2.5-3.3,3.3C1431.1,357.2,1430.7,357.7,1430.7,357.7z"/>
		</g>
	</g>
	<g id="bot" class="st7">
		<path id="XMLID_21_" class="st11" d="M1408,561.9c-90.5,0-172.2-37.7-230.2-98.2c8.1,35.2,22.2,68.2,42,99
			c15.2,23.7,32,46.2,54,64.4c20.1,16.7,42.3,22.2,67.3,13.6c9.8-3.4,19.4-7.5,29.2-11.1c12.4-4.6,25-7.4,37.8-7.7
			c12.8,0.3,25.3,3.1,37.8,7.7c9.8,3.6,19.4,7.7,29.2,11.1c25,8.6,47.3,3,67.3-13.6c21.9-18.2,38.7-40.6,54-64.4
			c19.7-30.8,33.9-63.8,42-99C1580.2,524.2,1498.5,561.9,1408,561.9z"/>
	</g>
	<g id="head" class="st7">
		<path id="XMLID_49_" class="st11" d="M1487.4,155.5c-2.5-42.8-50.4-44-65.3-7.9c-4.9-38.6-51.2-50.2-64.9-9.5
			c-13.3,39.4,47.7,98.4,52.3,102.7v0.2c0,0,0.1,0,0.2-0.1c0.1,0.1,0.1,0.1,0.1,0.1v-0.2C1415.4,237.7,1489.9,197,1487.4,155.5z
			 M1444.6,191.3l-16.9-1.6l-1.5,15.9l-13.8-1.3l1.5-15.9l-16.9-1.6l1.3-13.8l16.9,1.6l1.7-17.9l13.8,1.3l-1.7,17.9l16.9,1.6
			L1444.6,191.3z"/>
	</g>
</g>
<g id="Layer_9_copy">
	<g id="top_copy">
		<path id="XMLID_81_" class="st12" d="M1646,399c0.1-34.1-4.3-64-18.8-91.6c-21.8-41.5-55.4-66.8-102.3-73.9
			c-30.1-4.6-58.4,0.1-85.7,13c-9.9,4.7-20.1,8.8-31.2,8.4c-11,0.4-21.2-3.7-31.2-8.4c-27.4-12.9-55.6-17.6-85.7-13
			c-46.9,7.2-80.5,32.5-102.3,73.9c-14.5,27.6-18.9,57.5-18.8,91.6c-0.2,11.6,1.1,26.6,3.3,41.4c6.6,44.1,22.3,84.8,46.4,122.3
			c15.2,23.7,32,46.2,54,64.4c20.1,16.7,42.3,22.2,67.3,13.6c9.8-3.4,19.4-7.5,29.2-11.1c12.4-4.6,25-7.4,37.8-7.7
			c12.8,0.3,25.3,3.1,37.8,7.7c9.8,3.6,19.4,7.7,29.2,11.1c25,8.6,47.3,3,67.3-13.6c21.9-18.2,38.7-40.6,54-64.4
			c24-37.5,39.8-78.2,46.4-122.3C1644.9,425.6,1646.2,410.7,1646,399z"/>
	</g>
	<g id="eye_copy">
		<path id="XMLID_79_" class="st13" d="M1646,399c0.1-34.1-4.3-64-18.8-91.6c-21.8-41.5-55.4-66.8-102.3-73.9
			c-30.1-4.6-58.4,0.1-85.7,13c-9.9,4.7-20.1,8.8-31.2,8.4c-11,0.4-21.2-3.7-31.2-8.4c-27.4-12.9-55.6-17.6-85.7-13
			c-46.9,7.2-80.5,32.5-102.3,73.9c-14.5,27.6-18.9,57.5-18.8,91.6c-0.1,5.8,0.2,12.5,0.7,19.6c53.8,72.5,140,119.5,237.2,119.5
			c97.2,0,183.4-47,237.2-119.5C1645.8,411.5,1646.1,404.9,1646,399z M1328.8,384.9c-13.4,0-24.2-17.7-24.2-39.6
			s10.8-39.6,24.2-39.6s24.2,17.7,24.2,39.6S1342.2,384.9,1328.8,384.9z M1486.4,384.9c-13.4,0-24.2-17.7-24.2-39.6
			s10.8-39.6,24.2-39.6s24.2,17.7,24.2,39.6S1499.7,384.9,1486.4,384.9z"/>
	</g>
	<g id="close_copy" class="st0">
		<g id="XMLID_72_" class="st7">
			<path id="XMLID_74_" class="st13" d="M1261.3,357.7c0,0,0.2-0.6,0.5-1.6c0.4-1,1-2.5,1.9-4.4c1.8-3.7,4.7-8.8,9.3-14.3
				c4.5-5.5,10.8-11.4,18.7-16c1-0.6,2-1.2,3.1-1.7c1-0.5,2.1-1.1,3.2-1.5c1.1-0.5,2.2-1,3.3-1.4s2.3-0.8,3.5-1.2
				c4.7-1.5,9.6-2.4,14.6-2.8l1.9-0.1h0.9h1.1h1.7c0.6,0,1.1,0,1.8,0.1c1.3,0.1,2.7,0.2,3.9,0.3c1.2,0.2,2.5,0.4,3.7,0.6
				c1.2,0.3,2.4,0.5,3.6,0.8c1.2,0.4,2.4,0.7,3.5,1.1c2.3,0.8,4.6,1.8,6.6,2.9c4.2,2.2,7.9,5,10.9,8c3.1,3,5.6,6.1,7.5,9.1
				c4,6.1,6,11.7,7.1,15.7c0.6,2,0.8,3.6,1,4.7c0.2,1.1,0.2,1.7,0.2,1.7s-0.3-0.5-0.9-1.4c-0.6-0.9-1.4-2.2-2.6-3.9
				c-2.3-3.3-5.7-7.8-10.3-12.3c-4.6-4.6-10.6-9-17.6-11.9c-1.8-0.7-3.6-1.3-5.5-1.9c-1.9-0.5-3.8-0.9-5.8-1.2c-1-0.1-2-0.2-3-0.3
				c-1-0.1-1.9-0.1-2.9-0.2c-0.4,0-1.1,0-1.6,0h-1.7h-0.4h-0.2h-0.1c-0.2,0,0.2,0,0.1,0l0,0l-0.8,0.1l-1.5,0.1
				c-4.1,0.3-8.2,1-12.2,2c-0.5,0.1-1,0.2-1.5,0.4l-1.5,0.5c-1,0.3-1.9,0.6-2.9,0.9s-1.9,0.7-2.8,1.1c-0.9,0.4-1.8,0.8-2.7,1.2
				c-7.2,3.3-13.6,7.5-18.8,11.6c-5.2,4.1-9.3,8-12.2,10.8c-1.4,1.4-2.5,2.5-3.3,3.3C1261.7,357.2,1261.3,357.7,1261.3,357.7z"/>
		</g>
		<g id="XMLID_69_" class="st7">
			<path id="XMLID_71_" class="st13" d="M1430.7,357.7c0,0,0.2-0.6,0.5-1.6c0.4-1,1-2.5,1.9-4.4c1.8-3.7,4.7-8.8,9.3-14.3
				c4.5-5.5,10.8-11.4,18.7-16c1-0.6,2-1.2,3.1-1.7c1-0.5,2.1-1.1,3.2-1.5c1.1-0.5,2.2-1,3.3-1.4s2.3-0.8,3.5-1.2
				c4.7-1.5,9.6-2.4,14.6-2.8l1.9-0.1h0.9h1.1h1.7c0.6,0,1.1,0,1.8,0.1c1.3,0.1,2.7,0.2,3.9,0.3c1.2,0.2,2.5,0.4,3.7,0.6
				c1.2,0.3,2.4,0.5,3.6,0.8c1.2,0.4,2.4,0.7,3.5,1.1c2.3,0.8,4.6,1.8,6.6,2.9c4.2,2.2,7.9,5,10.9,8c3.1,3,5.6,6.1,7.5,9.1
				c4,6.1,6,11.7,7.1,15.7c0.6,2,0.8,3.6,1,4.7s0.2,1.7,0.2,1.7s-0.3-0.5-0.9-1.4s-1.4-2.2-2.6-3.9c-2.3-3.3-5.7-7.8-10.3-12.3
				c-4.6-4.6-10.6-9-17.6-11.9c-1.8-0.7-3.6-1.3-5.5-1.9c-1.9-0.5-3.8-0.9-5.8-1.2c-1-0.1-2-0.2-3-0.3c-1-0.1-1.9-0.1-2.9-0.2
				c-0.4,0-1.1,0-1.6,0h-1.7h-0.4h-0.2h-0.1c-0.2,0,0.2,0,0.1,0l0,0l-0.8,0.1l-1.5,0.1c-4.1,0.3-8.2,1-12.2,2
				c-0.5,0.1-1,0.2-1.5,0.4l-1.5,0.5c-1,0.3-1.9,0.6-2.9,0.9s-1.9,0.7-2.8,1.1s-1.8,0.8-2.7,1.2c-7.2,3.3-13.6,7.5-18.8,11.6
				c-5.2,4.1-9.3,8-12.2,10.8c-1.4,1.4-2.5,2.5-3.3,3.3C1431.1,357.2,1430.7,357.7,1430.7,357.7z"/>
		</g>
	</g>
	<g id="bot_copy">
		<path id="XMLID_66_" class="st13" d="M1408,561.9c-90.5,0-172.2-37.7-230.2-98.2c8.1,35.2,22.2,68.2,42,99
			c15.2,23.7,32,46.2,54,64.4c20.1,16.7,42.3,22.2,67.3,13.6c9.8-3.4,19.4-7.5,29.2-11.1c12.4-4.6,25-7.4,37.8-7.7
			c12.8,0.3,25.3,3.1,37.8,7.7c9.8,3.6,19.4,7.7,29.2,11.1c25,8.6,47.3,3,67.3-13.6c21.9-18.2,38.7-40.6,54-64.4
			c19.7-30.8,33.9-63.8,42-99C1580.2,524.2,1498.5,561.9,1408,561.9z"/>
	</g>
	<g id="head_copy">
		<path id="XMLID_90_" class="st13" d="M1487.4,155.5c-2.5-42.8-50.4-44-65.3-7.9c-4.9-38.6-51.2-50.2-64.9-9.5
			c-13.3,39.4,47.7,98.4,52.3,102.7v0.2c0,0,0.1,0,0.2-0.1c0.1,0.1,0.1,0.1,0.1,0.1v-0.2C1415.4,237.7,1489.9,197,1487.4,155.5z
			 M1444.6,191.3l-16.9-1.6l-1.5,15.9l-13.8-1.3l1.5-15.9l-16.9-1.6l1.3-13.8l16.9,1.6l1.7-17.9l13.8,1.3l-1.7,17.9l16.9,1.6
			L1444.6,191.3z"/>
	</g>
</g>
<g id="Layer_5" class="st0">
	<rect id="XMLID_20_" x="1716.9" y="328.8" class="st14" width="562.4" height="123.4"/>
	
		<text id="XMLID_19_" transform="matrix(1 0 0 1 1716.9082 424.7998)" class="st7" style="font-family:'BigJohn'; font-size:128px;">MHAPPi</text>
	<rect id="XMLID_44_" x="1716.9" y="449.1" class="st14" width="659.7" height="168"/>
	<text id="XMLID_32_" transform="matrix(1 0 0 1 1716.908 483.5839)" class="st7" style="font-family:'SlimJoe'; font-size:46px;">Time is WORTHY</text>
</g>
</svg>
