<?xml version="1.0" encoding="UTF-8" standalone="no"?>
<svg width="182px" height="228px" viewBox="0 0 182 228" version="1.1" xmlns="http://www.w3.org/2000/svg" xmlns:xlink="http://www.w3.org/1999/xlink" xmlns:sketch="http://www.bohemiancoding.com/sketch/ns">
    <!-- Generator: Sketch 3.4.2 (15857) - http://www.bohemiancoding.com/sketch -->
    <title>Untitled</title>
    <desc>Created with Sketch.</desc>
    <defs></defs>
    <g id="Page-1" stroke="none" stroke-width="1" fill="none" fill-rule="evenodd" sketch:type="MSPage">
        <g id="แจ้งเวลาออกตรวจ-Button" sketch:type="MSLayerGroup">
            <text id="แจ้งเวลาออกตรวจ" sketch:type="MSTextLayer" font-family="Sukhumvit Set" font-size="25" font-weight="normal" sketch:alignment="middle" fill="#FFFFFF">
                <tspan x="0" y="214.5">แจ้งเวลาออกตรวจ</tspan>
            </text>
            <g id="icon" transform="translate(21.000000, 0.000000)" sketch:type="MSShapeGroup">
                <rect id="Rectangle-25" fill="#FFFFFF" x="53.8468468" y="0" width="32.5585586" height="11.2958873"></rect>
                <rect id="Rectangle-26" fill="#FFFFFF" x="65.1171171" y="6.27549296" width="10.018018" height="12.5509859"></rect>
                <ellipse id="Oval-20" fill="#444444" cx="69.5" cy="87.2293521" rx="69.5" ry="69.6579718"></ellipse>
                <ellipse id="Oval-21" fill="#FFFFFF" cx="68.8738739" cy="87.8569014" rx="56.3513514" ry="56.4794366"></ellipse>
                <path d="M100.951247,41.4148891 C115.619695,51.6116774 125.225225,68.6099938 125.225225,87.8569014 C125.225225,119.049633 99.9958659,144.336338 68.8738739,144.336338 C58.768745,144.336338 49.2848545,141.670454 41.0841238,137.002113 C95.4454899,119.049082 102.034558,69.9149213 100.951247,41.4148891 Z" id="Oval-21-Copy" fill="#F0F0F0"></path>
                <path d="M68.0011618,92.7937288 L39.2035143,74.3568793 L70.0230266,89.5093519 L68.0011618,92.7937288 Z" id="Path-15" stroke="#4A4A4A" stroke-width="4" fill="#444444"></path>
                <path d="M68.2981894,92.0850123 L100.593958,58.0736478 L71.9404954,93.2706723 L68.2981894,92.0850123 Z" id="Path-16" stroke="#4A4A4A" stroke-width="4" fill="#4A4A4A"></path>
                <ellipse id="Oval-22" fill="#D8D8D8" cx="69.5" cy="91.6800563" rx="5.63513514" ry="5.64794366"></ellipse>
            </g>
        </g>
    </g>
</svg>