<?xml version="1.0" encoding="utf-8"?>
<!-- Generator: Adobe Illustrator 19.0.0, SVG Export Plug-In . SVG Version: 6.00 Build 0)  -->
<svg version="1.1" xmlns="http://www.w3.org/2000/svg" xmlns:xlink="http://www.w3.org/1999/xlink" x="0px" y="0px"
	 viewBox="-472 249.7 170 273.3" style="enable-background:new -472 249.7 170 273.3;" xml:space="preserve">
<style type="text/css">
	.st0{fill:#444444;}
	.st1{fill:#F8F8F8;}
	.st2{fill:#F0F0F0;}
	.st3{fill:#E7E2E2;}
	.st4{fill:#FFFFFF;}
	.st5{font-family:'SukhumvitSet-Thin';}
	.st6{font-size:25px;}
	.st7{display:none;fill:#FFFFFF;}
	.st8{display:none;}
</style>
<g id="Layer_1" xmlns:sketch="http://www.bohemiancoding.com/sketch/ns">
	<title>Untitled</title>
	<desc>Created with Sketch.</desc>
	<g id="Page-1" sketch:type="MSPage">
		<g id="จัดการผู้ป่วย-Button" sketch:type="MSLayerGroup">
			<g id="icon" sketch:type="MSShapeGroup">
				<path id="Rectangle-16" class="st0" d="M-445,284.9h121c1.7,0,3,1.3,3,3V435c0,1.7-1.3,3-3,3h-121c-1.7,0-3-1.3-3-3V287.9
					C-448,286.2-446.7,284.9-445,284.9z"/>
				<rect id="Rectangle-17" x="-438" y="293" class="st1" width="108" height="133.4"/>
				<path id="Rectangle-17-Copy" class="st2" d="M-336,293h6v133.4h-108V412C-409.4,401.9-348.8,371.4-336,293z"/>
				<path id="Oval-1" class="st2" d="M-355.5,299.1c0.3-1,0.5-2.1,0.5-3.1c0-6.8-7.1-12.6-17.3-15.2c0.2-0.7,0.3-1.5,0.3-2.3
					c0-5.9-5.4-10.7-12-10.7s-12,4.8-12,10.7c0,0.8,0.1,1.6,0.3,2.3c-10.2,2.6-17.3,8.4-17.3,15.2c0,1.1,0.2,2.1,0.5,3.1H-355.5z
					 M-384.5,280.4c1.9,0,3.5-1.4,3.5-3.1s-1.6-3.1-3.5-3.1s-3.5,1.4-3.5,3.1S-386.4,280.4-384.5,280.4z"/>
				<path id="Oval-1-Copy" class="st3" d="M-357.4,289.4c1.5,2,2.4,4.3,2.4,6.6c0,1.1-0.2,2.1-0.5,3.1h-57c-0.3-1-0.5-2.1-0.5-3.1
					c0-2.3,0.9-4.6,2.4-6.6H-357.4z"/>
			</g>
			<text transform="matrix(1 0 0 1 -448 490)" class="st4 st5 st6">จัดการแพทย์</text>
		</g>
	</g>
	<rect x="-472" y="249.7" class="st7" width="170" height="273.3"/>
</g>
<g id="Layer_2" class="st8">
</g>
</svg>
