<?xml version="1.0" encoding="UTF-8" standalone="no"?>
<svg width="173px" height="231px" viewBox="0 0 173 231" version="1.1" xmlns="http://www.w3.org/2000/svg" xmlns:xlink="http://www.w3.org/1999/xlink" xmlns:sketch="http://www.bohemiancoding.com/sketch/ns">
    <!-- Generator: Sketch 3.4.2 (15857) - http://www.bohemiancoding.com/sketch -->
    <title>Untitled</title>
    <desc>Created with Sketch.</desc>
    <defs></defs>
    <g id="Page-1" stroke="none" stroke-width="1" fill="none" fill-rule="evenodd" sketch:type="MSPage">
        <g id="นัดหมายแพทย์-Button" sketch:type="MSLayerGroup">
            <text id="นัดหมายผู้ป่วย" sketch:type="MSTextLayer" font-family="Sukhumvit Set" font-size="25" font-weight="normal" sketch:alignment="middle" fill="#FFFFFF">
                <tspan x="11.5" y="217.5">นัดหมายผู้ป่วย</tspan>
            </text>
            <g id="Group" transform="translate(0.000000, 24.000000)" sketch:type="MSShapeGroup">
                <path d="M172.835679,119 C172.944692,117.180976 173,115.347096 173,113.5 C173,64.6227996 134.272631,25 86.5,25 C38.7273691,25 0,64.6227996 0,113.5 C0,115.347096 0.0553075391,117.180976 0.164320685,119 L172.835679,119 Z" id="Oval-7" fill="#505050"></path>
                <path d="M172.998649,114 C172.999549,113.833442 173,113.666775 173,113.5 C173,86.2404292 160.953986,61.8594078 142.011074,45.6251081 C141.889545,45.9313239 141.768604,46.2430192 141.648262,46.5602411 C121.356106,100.050025 30.1033282,103.750012 0.544456935,103.51487 C0.184745569,106.792429 0,110.124141 0,113.5 C0,113.666775 0.000450885512,113.833442 0.00135147739,114 L0,128 L173,128 L173,114 Z" id="Oval-7-Copy" fill="#444444"></path>
                <path d="M52.1544477,33.1691878 C53.345948,36.2156273 54,39.5314327 54,43 C54,57.9116882 41.9116882,70 27,70 C12.0883118,70 0,57.9116882 0,43 C0,34.4484963 3.975548,26.8255315 10.1792557,21.878494 C18.6059897,13.4975659 38.8638254,0.787757252 84.2292492,0.787757252 C130.194608,0.787757252 153.110971,13.7645022 163.084326,22.091389 C163.373656,22.3280802 163.657982,22.5706582 163.937123,22.8189402 C168.017322,26.3769731 169.618804,28.9210166 169.618804,28.9210166 L169.073051,28.969824 C171.564658,33.0585896 173,37.8616737 173,43 C173,57.9116882 160.911688,70 146,70 C131.088312,70 119,57.9116882 119,43 C119,39.44305 119.687809,36.0467462 120.937679,32.9368351 C116.381781,30.7362649 85.4311734,17.0233264 52.1544477,33.1691878 Z" id="Oval-8" fill="#444444"></path>
                <path id="Path-11" stroke="#979797" d=""></path>
                <path d="M87,102 C103.568542,102 117,88.5685425 117,72 C117,55.4314575 103.568542,42 87,42 C70.4314575,42 57,55.4314575 57,72 C57,88.5685425 70.4314575,102 87,102 Z M87.5,56 C89.9852814,56 92,53.9852814 92,51.5 C92,49.0147186 89.9852814,47 87.5,47 C85.0147186,47 83,49.0147186 83,51.5 C83,53.9852814 85.0147186,56 87.5,56 Z M73.5,61 C75.9852814,61 78,58.9852814 78,56.5 C78,54.0147186 75.9852814,52 73.5,52 C71.0147186,52 69,54.0147186 69,56.5 C69,58.9852814 71.0147186,61 73.5,61 Z M66.5,74 C68.9852814,74 71,71.9852814 71,69.5 C71,67.0147186 68.9852814,65 66.5,65 C64.0147186,65 62,67.0147186 62,69.5 C62,71.9852814 64.0147186,74 66.5,74 Z M70.5,88 C72.9852814,88 75,85.9852814 75,83.5 C75,81.0147186 72.9852814,79 70.5,79 C68.0147186,79 66,81.0147186 66,83.5 C66,85.9852814 68.0147186,88 70.5,88 Z M101.5,61 C103.985281,61 106,58.9852814 106,56.5 C106,54.0147186 103.985281,52 101.5,52 C99.0147186,52 97,54.0147186 97,56.5 C97,58.9852814 99.0147186,61 101.5,61 Z M107.5,74 C109.985281,74 112,71.9852814 112,69.5 C112,67.0147186 109.985281,65 107.5,65 C105.014719,65 103,67.0147186 103,69.5 C103,71.9852814 105.014719,74 107.5,74 Z" id="Oval-11" fill="#F8F8F8"></path>
                <circle id="Oval-12" fill="#E6E2E2" cx="87.5" cy="72.5" r="11.5"></circle>
                <rect id="Rectangle-23" fill="#E6E2E2" x="109" y="68" width="12" height="4" rx="3"></rect>
            </g>
        </g>
    </g>
</svg>