<?xml version="1.0" encoding="UTF-8" standalone="no"?>
<svg width="179px" height="236px" viewBox="0 0 179 236" version="1.1" xmlns="http://www.w3.org/2000/svg" xmlns:xlink="http://www.w3.org/1999/xlink" xmlns:sketch="http://www.bohemiancoding.com/sketch/ns">
    <!-- Generator: Sketch 3.4.2 (15857) - http://www.bohemiancoding.com/sketch -->
    <title>Untitled</title>
    <desc>Created with Sketch.</desc>
    <defs></defs>
    <g id="Page-1" stroke="none" stroke-width="1" fill="none" fill-rule="evenodd" sketch:type="MSPage">
        <g id="ดูตารางนัด-Button" sketch:type="MSLayerGroup">
            <g id="icon" transform="translate(8.000000, 0.000000)">
                <rect id="Rectangle-9" fill="#F8F8F8" sketch:type="MSShapeGroup" x="0" y="14" width="161" height="146" rx="8"></rect>
                <path d="M161,100 L161,22.0053433 C161,17.572753 157.419276,14 153.00223,14 L7.99777021,14 C3.5884478,14 0,17.5841143 0,22.0053433 L0,100 L161,100 Z" id="Rectangle-9-Copy-2" fill="#F0F0F0" sketch:type="MSShapeGroup"></path>
                <path d="M161,49 L161,21.9981662 C161,17.577427 157.419276,14 153.00223,14 L7.99777021,14 C3.5884478,14 0,17.580901 0,21.9981662 L0,49 L161,49 Z" id="Rectangle-9-Copy" fill="#444444" sketch:type="MSShapeGroup"></path>
                <text id="25" sketch:type="MSTextLayer" font-family="Big John" font-size="72" font-weight="normal" fill="#444444">
                    <tspan x="34" y="127">25</tspan>
                </text>
                <rect id="Rectangle-14" fill="#F8F8F8" sketch:type="MSShapeGroup" x="19" y="0" width="18" height="30" rx="8"></rect>
                <rect id="Rectangle-14-Copy" fill="#F8F8F8" sketch:type="MSShapeGroup" x="126" y="0" width="18" height="30" rx="8"></rect>
                <text id="Oct" sketch:type="MSTextLayer" font-family="Big John" font-size="20" font-weight="normal" fill="#FFFFFF">
                    <tspan x="58" y="40">Oct</tspan>
                </text>
            </g>
            <text id="ดูรายการนัดหมาย" sketch:type="MSTextLayer" font-family="Sukhumvit Set" font-size="25" font-weight="normal" sketch:alignment="middle" fill="#FFFFFF">
                <tspan x="0" y="223">ดูรายการนัดหมาย</tspan>
            </text>
        </g>
    </g>
</svg>